<svg width="1186" height="1186" viewBox="0 0 1186 1186" fill="none" xmlns="http://www.w3.org/2000/svg">
<circle cx="593" cy="593" r="593" fill="white"/>
<path d="M460.151 673.485C478.674 683.692 498.412 688.549 518.828 691.316C547.787 695.241 576.904 695.833 606.027 695.103C626.775 694.583 647.697 694.417 667.821 688.186C684.495 683.023 701.462 678.442 715.859 667.859C717.468 666.676 719.198 665.564 720.525 664.104C731.747 651.757 732.703 641.814 722.467 629.584C711.247 616.177 695.824 609.428 679.767 603.907C664.177 598.547 648.412 593.84 631.918 592.23C628.102 591.857 626.395 590.022 625.779 586.371C625.148 582.633 624.05 578.974 623.113 575.097C628.457 572.927 633.114 575.662 637.906 576.244C665.678 579.616 691.601 588.636 716.058 602.053C727.316 608.229 735.889 617.109 742.137 628.275C743.769 631.192 745.192 634.222 745.492 637.604C745.894 642.132 748.191 643.538 752.73 643.347C760.852 643.005 768.943 643.09 777.022 645.115C793.405 649.22 807.938 666.709 809.522 683.662C811.947 709.62 799.182 728.078 781.043 744.161C779.088 745.895 776.577 747.014 775.169 749.396C776.311 751.522 778.406 752.309 780.149 753.529C793.993 763.215 804.232 775.742 808.264 792.311C813.419 813.496 806.933 831.923 793.387 848.394C779.893 864.803 762.496 875.41 743.2 883.613C712.659 896.597 680.633 904.049 648.115 909.559C635.69 911.664 623.027 912.441 610.391 912.869C592.409 913.477 574.422 913.334 556.447 912.858C541.486 912.462 526.677 910.205 511.856 908.263C488.199 905.164 465.191 899.162 442.649 891.606C421.612 884.553 401.126 875.923 383.246 862.43C365.719 849.205 354.336 831.94 352.965 809.547C351.812 790.714 359.524 774.738 371.877 761.063C385.046 746.485 401.446 736.365 419.29 728.421C427.104 724.941 426.988 724.824 424.411 716.626C421.048 705.926 419.764 694.849 419.267 683.728C418.599 668.79 417.419 653.778 420.662 638.967C423.957 623.919 434.666 614.171 446.169 605.538C461.29 594.191 478.739 587.596 497.06 583.256C508.201 580.617 519.275 577.809 530.729 576.557C539.449 575.603 540.384 575.739 541.998 584.087C542.374 586.03 542.541 588.014 542.833 590.193C534.018 592.772 524.991 593.06 516.275 594.956C494.391 599.719 472.986 605.801 454.289 618.846C450.296 621.632 446.99 625.187 443.902 628.903C431.669 643.621 438.977 658.365 451.279 668.152C453.862 670.207 456.959 671.615 460.151 673.485ZM592.585 711.9C563.968 711.946 535.39 711.767 507.148 705.996C482.379 700.934 458.325 694.251 437.587 678.92C437.447 678.817 437.027 679.093 436.603 679.237C436.558 679.849 436.41 680.512 436.475 681.153C438.604 702.133 443.62 722.393 452.186 741.676C460.787 761.037 474.305 776.76 489.422 791.313C502.118 803.537 516.88 812.632 533.175 818.698C558.292 828.049 584.769 830.358 610.876 825.739C638.528 820.846 662.951 808.29 682.596 787.122C701.563 766.685 714.778 743.126 723.757 717.011C727.972 704.753 729.343 691.922 730.513 678.337C728.257 679.695 726.623 680.499 725.188 681.57C714.118 689.836 701.814 695.537 688.647 699.565C657.649 709.048 625.796 711.824 592.585 711.9ZM783.763 781.389C778.582 773.04 771.641 766.426 763.731 760.693C761.285 758.92 759.192 758.599 756.396 759.913C747.182 764.241 737.633 768.253 727.674 769.803C717.819 771.338 711.444 776.296 706.518 784.245C703.282 789.469 697.636 792.75 694.781 798.368C696.433 800.634 698.975 801.294 700.977 802.706C710.935 809.73 713.006 820.366 706.48 830.545C701.661 838.06 694.923 843.442 687.347 847.762C660.499 863.073 631.044 868.565 600.653 869.809C584.866 870.455 569.096 869.648 553.291 868.173C528.333 865.843 504.623 859.256 481.507 850.065C475.14 847.533 469.408 843.808 464.396 839.014C451.766 826.936 453.174 810.098 467.689 800.273C469.028 799.367 470.718 798.788 471.527 796.139C454.995 780.388 440.86 762.294 431.945 739.882C428.942 742.833 426.19 743.994 423.517 745.32C409.017 752.513 394.975 760.128 383.79 772.462C367.767 790.133 365.774 812.08 379.212 831.868C390.378 848.31 406.447 858.13 424.381 865.126C453.726 876.574 483.883 885.27 515.175 889.532C534.786 892.203 554.455 894.404 574.294 894.23C582.116 894.161 589.935 893.704 597.756 893.651C616.904 893.522 636.129 893.409 654.967 889.951C685.769 884.295 715.783 875.693 744.491 862.889C758.04 856.847 770.365 849.268 780.083 837.763C793.644 821.708 796.879 800.421 783.763 781.389ZM598.734 856.449C611.42 855.978 623.773 853.223 636.108 850.613C652.866 847.067 668.01 839.222 683.243 831.75C685.273 830.755 687.09 829.057 688.606 827.334C694.557 820.569 693.748 812.263 686.666 806.352C683.399 807.698 681.062 810.403 678.251 812.438C664.13 822.659 649.085 831.229 632.31 836.163C607.917 843.337 582.975 845.56 557.793 841.681C546.662 839.967 535.46 837.715 525.001 833.329C510.349 827.186 496.645 819.289 484.513 808.901C481.842 806.614 479.887 807.216 477.792 809.697C471.595 817.035 473.439 827.68 482.129 831.783C491.911 836.4 501.744 841.058 511.927 844.639C529.542 850.834 547.876 854.465 566.445 855.997C576.821 856.852 587.33 858.592 598.734 856.449ZM733.157 740.907C732.119 744.146 729.98 747.057 729.959 750.501C731.314 751.494 732.448 751.174 733.559 750.811C751.227 745.035 767.574 736.609 780.4 723.092C790.873 712.054 795.135 697.817 792.29 682.847C788.215 661.409 766.12 655.034 749.425 659.13C747.374 659.633 746.364 660.848 746.395 663.053C746.467 668.13 746.418 673.208 746.418 678.632C752.291 676.003 758.451 674.689 764.85 675.286C772.277 675.98 779.139 678.082 782.165 685.816C785.504 694.352 784.857 702.621 779.855 710.577C771.383 724.055 758.256 729.411 743.426 731.386C737.644 732.156 734.014 734.106 733.157 740.907ZM743.409 708.996C743.558 710.579 741.983 712.111 743.214 713.721C750.936 714.846 762.802 709.636 766.687 703.318C768.716 700.018 768.734 696.538 766.086 693.633C763.532 690.831 760.25 688.969 756.315 690.56C749.869 693.166 743.336 695.831 744.306 704.821C744.422 705.9 743.783 707.06 743.409 708.996Z" fill="#007777"/>
<path d="M618.38 621.563C615.913 627.192 612.3 631.508 608.194 635.453C606.618 636.966 604.865 638.263 602.748 638.86C599.922 639.658 596.559 641.335 594.431 638.451C592.595 635.962 594.977 633.341 596.509 631.309C606.528 618.018 606.577 604.202 599.385 589.684C595.625 582.095 592.35 574.263 588.948 566.502C587.058 562.192 588.721 557.651 592.789 555.493C597.363 553.068 601.205 553.866 603.785 558.448C611.552 572.242 618.548 586.407 621.156 602.232C622.228 608.737 621.346 615.151 618.38 621.563Z" fill="#007777"/>
<path d="M560.952 562.76C565.783 575.724 570.694 588.261 569.48 602.156C568.43 614.181 561.494 623.064 553.904 631.546C551.776 633.924 548.521 633.536 545.996 632.174C542.977 630.544 544.989 627.928 545.87 626.046C549.777 617.701 552.871 609.228 552.812 599.809C552.754 590.462 550.303 581.775 546.373 573.408C543.01 566.246 544.274 559.346 549.649 555.397C554.449 551.872 557.346 552.7 559.314 558.169C559.821 559.576 560.301 560.994 560.952 562.76Z" fill="#007777"/>
<path d="M853.211 809.433C851.578 813.251 849.154 815.901 845.943 817.877C840.166 821.431 835.186 820.898 830.651 816.192C826.13 811.501 825.404 803.525 829.016 798.219C832.87 792.559 838.11 790.9 844.169 793.422C851.594 796.513 853.948 800.54 853.211 809.433Z" fill="#007777"/>
<path d="M321.323 795.083C327.403 795.12 331.588 797.431 333.63 803.006C335.729 808.737 333.997 813.213 329.582 817.201C324.1 822.151 319.374 823.676 314.966 821.35C309.153 818.283 306.04 813.21 306.935 808.263C308.031 802.205 314.359 796.265 321.323 795.083Z" fill="#007777"/>
<path d="M587.68 579.361C588.066 581.049 588.322 582.351 588.58 583.651C589.073 586.132 590.9 589.204 587.653 590.686C583.929 592.385 580.018 591.71 577.29 588.304C574.15 584.382 573.76 579.414 572.889 574.704C572.498 572.587 574.35 571.927 576.009 571.503C581.211 570.172 585.697 573.097 587.68 579.361Z" fill="#007777"/>
<path d="M502.268 730.361C499.585 735.12 495.95 736.265 491.43 734.127C486.406 731.75 484.355 727.852 485.828 723.478C487.28 719.166 490.391 717.722 495.848 718.827C503.228 720.32 504.413 722.342 502.268 730.361Z" fill="#007777"/>
<path d="M516.778 734.096C514.118 729.992 513.885 728.895 514.493 724.746C519.133 724.463 522.345 726.8 522.221 730.585C522.115 733.818 520.66 735.591 516.778 734.096Z" fill="#007777"/>
<path d="M397.152 783.269C394.556 778.522 396.852 774.826 399.334 771.602C401.896 768.276 405.918 767.19 410.026 767.665C412.996 768.009 415.28 769.876 416.065 772.885C416.992 776.439 416.523 779.787 413.672 782.484C407.976 787.872 404.662 788.099 397.152 783.269Z" fill="#007777"/>
<path d="M387.277 795.852C387.745 792.971 388.446 790.624 390.538 788.962C393.169 786.872 396.003 786.633 398.811 788.407C402.207 790.551 402.965 793.798 401.954 797.5C401.103 800.62 399.364 802.762 395.759 802.865C390.747 803.01 387.945 800.908 387.277 795.852Z" fill="#007777"/>
<path d="M688.271 669.926C663.214 678.967 637.98 684.908 611.571 686.11C588.24 687.173 564.958 687.197 541.681 685.79C522.355 684.622 503.44 681.36 485.677 672.976C478.018 669.361 469.914 666.771 462.945 661.668C450.729 652.723 450.326 642.599 462.351 633.25C475.892 622.725 491.506 616.683 508.161 613.341C518.086 611.35 528.14 609.996 538.147 608.426C539.75 608.174 541.449 607.914 543.106 608.923C544.42 614.202 542.447 619.391 542.41 624.653C542.339 634.549 545.623 638.828 555.315 641.338C559.327 642.377 563.443 642.982 567.279 644.745C569.344 645.695 571.957 645.64 573.086 643.456C574.523 640.681 571.689 639.48 569.916 638.793C564.863 636.837 565.004 633.789 567.279 629.811C571.075 623.172 575.112 616.662 577.604 609.342C579.154 604.791 583.887 603.18 587.153 600.352C589.689 598.157 596.129 606.349 595.247 611.158C594.132 617.236 592.215 623.086 589.091 628.479C588.34 629.775 587.509 631.032 586.858 632.377C583.654 639.004 585.843 643.905 592.823 646.495C599.444 648.953 605.451 648.611 610.967 643.776C620.562 635.366 628.856 626.348 628.875 612.393C628.883 606.657 633.368 608.161 636.617 608.645C650.139 610.657 663.322 614.036 676.076 619.008C686.193 622.952 695.902 627.654 704.614 634.237C707.171 636.168 709.366 638.389 710.997 641.17C714.858 647.753 714.295 651.195 709.115 656.743C703.376 662.889 696.138 666.511 688.271 669.926ZM476.775 647.41C479.415 649.357 480.926 654.36 484.89 652.669C492.576 649.39 499.291 644.405 502.857 636.433C504.236 633.35 502.556 631.497 499.219 632.009C494.299 632.763 489.263 633.612 485.019 636.301C481.132 638.764 477.632 641.891 476.775 647.41ZM516.748 666.282C519.058 666.705 521.646 668.752 524.122 664.141C511.125 663.829 501.009 654.965 487.398 654.767C490.377 659.432 494.077 660.421 497.771 661.193C503.946 662.482 510.231 663.308 516.748 666.282Z" fill="#007777"/>
<g clip-path="url(#clip0_8_250)">
<path fill-rule="evenodd" clip-rule="evenodd" d="M582.582 394.645C586.814 391.829 592.324 391.83 596.555 394.649C599.583 396.672 602.116 399.351 603.965 402.489C605.814 405.626 606.931 409.14 607.234 412.769L609.635 441.633L653.262 466.585C654.563 467.328 655.644 468.403 656.396 469.699C657.148 470.995 657.544 472.468 657.544 473.966L657.54 486.487C657.54 487.55 657.293 488.598 656.818 489.549C656.343 490.5 655.655 491.328 654.806 491.968C653.957 492.608 652.971 493.042 651.926 493.236C650.881 493.43 649.805 493.378 648.783 493.086L609.177 481.757L606.876 506.946L612.948 511.001C614.114 511.776 615.07 512.828 615.731 514.062C616.393 515.296 616.739 516.674 616.74 518.075L616.73 534.071C616.729 535.159 616.47 536.231 615.973 537.199C615.477 538.167 614.758 539.003 613.875 539.638C612.992 540.274 611.971 540.69 610.895 540.854C609.82 541.017 608.721 540.923 607.689 540.579L589.531 534.53L571.374 540.564C570.341 540.908 569.243 541.002 568.167 540.837C567.092 540.673 566.071 540.256 565.189 539.62C564.306 538.984 563.587 538.148 563.091 537.18C562.595 536.211 562.337 535.139 562.336 534.052L562.34 518.05C562.342 516.651 562.689 515.274 563.35 514.042C564.011 512.809 564.966 511.758 566.131 510.983L572.205 506.932L569.923 481.746L530.306 493.049C529.284 493.341 528.208 493.391 527.163 493.197C526.118 493.002 525.132 492.568 524.284 491.928C523.435 491.288 522.747 490.459 522.273 489.508C521.799 488.556 521.552 487.508 521.552 486.445L521.555 473.925C521.556 472.426 521.952 470.954 522.705 469.658C523.458 468.362 524.54 467.288 525.841 466.545L569.477 441.622L571.899 412.755C572.203 409.126 573.322 405.612 575.173 402.476C577.023 399.34 579.558 396.661 582.587 394.641L582.582 394.645ZM589.565 406.365C588.392 407.262 587.419 408.395 586.71 409.691C586 410.987 585.568 412.416 585.443 413.888L582.737 446.29C582.643 447.399 582.281 448.47 581.682 449.409C581.083 450.347 580.265 451.126 579.297 451.679L535.147 476.885L535.142 477.525L574 466.433C574.972 466.156 575.993 466.096 576.991 466.259C577.988 466.422 578.938 466.803 579.771 467.375C580.604 467.947 581.301 468.696 581.812 469.568C582.322 470.441 582.634 471.415 582.725 472.422L586.1 509.695C586.211 510.926 585.989 512.165 585.455 513.28C584.922 514.395 584.097 515.346 583.069 516.032L575.932 520.79L575.931 524.713L587.164 520.975C588.7 520.464 590.36 520.464 591.895 520.977L603.131 524.716L603.127 520.797L595.993 516.035C594.965 515.349 594.141 514.398 593.608 513.282C593.075 512.167 592.853 510.928 592.966 509.697L596.365 472.421C596.457 471.414 596.769 470.44 597.28 469.568C597.791 468.695 598.488 467.947 599.322 467.375C600.156 466.804 601.105 466.423 602.103 466.261C603.101 466.099 604.122 466.159 605.094 466.437L643.941 477.554L643.936 476.915L599.804 451.679C598.837 451.126 598.02 450.345 597.422 449.405C596.824 448.465 596.464 447.394 596.373 446.284L593.679 413.886C593.43 410.895 591.931 408.173 589.565 406.365Z" fill="#007777"/>
</g>
<path d="M544.949 288.626C522.129 293.766 499.722 298.805 478.453 307.819C471.369 310.822 464.88 314.904 458.138 318.534C446.054 325.04 441.447 336.564 437.634 348.636C436.434 352.437 435.241 356.278 434.547 360.189C433.947 363.568 432.369 364.33 429.344 363.435C418.658 360.276 407.992 357.042 397.26 354.049C368.754 346.1 340.313 337.897 311.155 332.524C306.843 331.73 301.472 330.974 301.029 325.308C300.568 319.418 305.73 317.741 310.17 316.315C339.461 306.908 368.782 297.594 398.113 288.313C419.996 281.389 441.822 274.263 463.829 267.753C502.715 256.252 541.397 244.046 580.679 233.884C586.706 232.325 592.05 232.987 597.697 234.631C641.74 247.453 685.958 259.659 729.892 272.876C755.666 280.629 781.808 287.157 807.757 294.335C814.965 296.329 822.081 298.655 829.224 300.88C830.806 301.373 832.711 301.681 833.807 302.751C841.951 310.7 853.359 310.223 863.003 314.255C866.67 315.788 870.686 316.487 874.351 318.024C880.58 320.638 881.113 325.808 875.677 329.803C874.373 330.761 872.769 331.477 871.194 331.872C862.813 333.978 854.432 336.116 845.975 337.878C842.537 338.595 841.288 340.042 841.352 343.556C841.54 353.883 841.494 364.217 841.378 374.546C841.346 377.424 842.12 379.413 845.057 380.177C853.182 382.29 858.954 391.782 857.199 401.737C855.835 409.471 850.291 418.521 838.576 418.916C837.248 418.961 835.919 419.114 834.601 419.293C823.291 420.826 816.669 417.09 812.481 406.793C808.817 397.784 811.772 387.274 820.458 381.842C824.797 379.127 826.008 376.108 825.834 371.354C825.506 362.373 825.999 353.364 824.974 344.401C824.863 343.431 824.959 342.374 823.447 341.263C812.704 344.892 801.241 347.558 789.928 350.764C776.8 354.485 763.713 358.369 750.71 362.504C745.953 364.017 743.64 362.825 742.435 358.043C740.727 351.272 738.593 344.619 736.357 337.987C733.54 329.637 728.32 323.62 720.868 319.159C705.357 309.873 689.087 302.508 671.478 298.075C652.625 293.329 633.88 288.189 614.601 285.323C597.378 282.763 580.234 282.874 563.022 285.511C557.111 286.416 551.214 287.327 544.949 288.626Z" fill="#007777"/>
<path d="M670.308 390.506C635.693 380.684 600.729 376.457 565.316 379.166C527.518 382.057 490.967 390.274 458.74 411.783C452.949 415.648 447.803 420.48 442.371 424.879C441.26 425.779 440.533 427.336 438.133 426.864C437.219 419.745 437.78 412.564 438.798 405.383C441.781 384.345 445.588 363.476 450.655 342.821C451.979 337.425 454.898 334.417 459.456 331.663C483.752 316.983 510.428 309.119 537.876 303.116C553.818 299.63 569.861 296.945 586.092 295.538C598.477 294.464 610.608 297.217 622.706 299.324C646.812 303.521 670.829 308.304 693.306 318.419C702.088 322.371 710.412 327.355 718.88 331.987C723.476 334.5 725.042 338.645 726.008 343.767C728.466 356.81 732.857 369.444 734.873 382.605C736.804 395.212 738.683 407.829 740.336 420.474C740.633 422.743 741.604 426.01 738.801 427.273C736.168 428.46 734.239 425.893 732.448 424.273C717.534 410.788 700.2 401.383 681.625 394.096C678.074 392.703 674.339 391.782 670.308 390.506ZM460.373 378.109C459.473 382.751 458.681 387.392 460.076 392.118C466.216 390.591 470.225 386.657 470.538 381.096C470.763 377.102 471.744 373.498 472.88 369.71C475.204 361.96 477.089 354.038 477.691 345.903C477.776 344.762 477.482 343.57 479.142 343.196C481.58 342.648 481.29 340.861 480.399 339.337C479.391 337.615 477.664 337.553 476.041 338.505C472.412 340.634 469.178 343.188 467.992 347.494C465.276 357.356 461.459 366.94 460.373 378.109Z" fill="#007777"/>
<path d="M817.297 433.705C828.3 433.34 838.916 432.991 849.531 433C854.022 433.004 856.084 436.386 857.455 440.21C859.966 447.213 859.66 454.629 860.518 461.857C862.082 475.03 863.228 488.252 864.465 501.462C864.709 504.073 865.384 506.847 863.876 509.275C862.437 511.593 860.514 513.662 857.476 513.31C853.369 512.834 850.139 510.747 849.015 506.603C847.352 500.47 847.62 494.082 847.172 487.802C846.89 483.851 846.267 480.016 844.717 476.209C844.717 485.578 844.734 494.947 844.712 504.317C844.696 511.15 843.136 513.166 837.704 513.51C829.2 514.047 825.75 512.001 825.415 505.119C824.995 496.518 825.314 487.882 824.854 479.23C822.364 485.462 822.823 492.122 821.724 498.532C821.22 501.471 821.044 504.502 820.197 507.336C818.936 511.56 814.744 513.566 810.108 512.384C806.004 511.336 804.595 508.337 805.097 504.385C807.732 483.661 810.343 462.933 813.175 442.235C813.583 439.252 813.853 435.837 817.297 433.705Z" fill="#007777"/>
<defs>
<clipPath id="clip0_8_250">
<rect width="163.193" height="163.193" fill="white" transform="translate(475 488.364) rotate(-44.9845)"/>
</clipPath>
</defs>
</svg>
